<svg width="89px" height="24px" viewBox="0 0 89 24" version="1.1" xmlns="http://www.w3.org/2000/svg" xmlns:xlink="http://www.w3.org/1999/xlink">
    <g id="1.-Mobile" stroke="none" stroke-width="1" fill="none" fill-rule="evenodd">
        <g id="1.1-Home" transform="translate(-12.000000, -86.000000)" fill="#2B2B2B">
            <g id="Nav-bar" transform="translate(0.000000, 70.000000)">
                <path d="M23.0621115,39.640327 L12,39.640327 L12,39.1171662 L13.22554,39.1171662 L13.22554,16.5231608 L12,16.5231608 L12,16 L18.5469639,16 L18.5469639,16.5231608 L17.1924197,16.5231608 L17.1924197,39.1171662 L18.2567044,39.1171662 C20.385274,39.1171662 21.0302951,38.5286104 22.6105967,30.1907357 L23.0621115,30.1907357 L23.0621115,39.640327 Z M29.0557898,39.640327 L25.4759228,39.640327 L25.4759228,39.1171662 C26.3144502,39.0517711 26.7014629,38.8228883 26.8949692,37.6457766 L30.6360914,16 L32.9904184,16 L36.1832727,39.1171662 L37.3443106,39.1171662 L37.3443106,39.640327 L30.990853,39.640327 L30.990853,39.1171662 L32.2808952,39.1171662 L31.7971294,34.8010899 L28.0237561,34.8010899 L27.6044924,38.0708447 C27.5077392,38.8555858 28.5075219,39.1171662 29.0557898,39.1171662 L29.0557898,39.640327 Z M28.1205092,34.2779292 L31.7003762,34.2779292 L30.2168277,22.5395095 L30.1523256,22.5395095 L28.1205092,34.2779292 Z M38.2050536,16.5231608 L38.2050536,16 L44.6552643,16 L44.6552643,16.5231608 L43.4297243,16.5231608 L43.4297243,37.8092643 C43.4297243,38.7574932 43.6877327,39.2479564 45.074528,39.2479564 C46.3645702,39.2479564 47.7513655,38.1035422 47.7513655,34.8010899 L47.7513655,18.0599455 C47.7513655,16.8501362 47.1063444,16.5231608 46.1065617,16.5231608 L46.1065617,16 L49.7509308,16 L49.7509308,16.5231608 C48.8801524,16.5885559 48.4286376,16.9155313 48.4286376,18.0599455 L48.4286376,34.506812 C48.4286376,38.8228883 46.6225786,40 43.7844859,40 C41.2366526,40 39.4628447,38.7574932 39.4628447,35.2915531 L39.4628447,16.5231608 L38.2050536,16.5231608 Z M59.494946,36.7956403 L59.494946,30.2234332 C59.494946,28.1307902 58.8499249,27.8692098 57.2373722,27.8692098 L57.2373722,39.1171662 L58.4951633,39.1171662 L58.4951633,39.640327 L52.0449526,39.640327 L52.0449526,39.1171662 L53.2704926,39.1171662 L53.2704926,16.5231608 L52.0449526,16.5231608 L52.0449526,16 L57.4953807,16 C61.6235155,16 63.4618256,18.7138965 63.4618256,21.6566757 C63.4618256,24.7302452 62.2362856,26.6920981 59.3336907,27.6076294 L59.3336907,27.6730245 C62.1072813,28.719346 63.3005703,29.7002725 63.3005703,33.6566757 L63.3005703,36.8610354 C63.3005703,38.1362398 63.4940767,38.7247956 63.9455914,38.7247956 C64.7196167,38.7247956 64.9453741,38.0054496 65.1388804,35.7493188 L65.6548973,35.7493188 C65.7193994,39.346049 64.2358509,39.8365123 62.5587961,39.8365123 C60.4624776,39.8365123 59.494946,38.8555858 59.494946,36.7956403 Z M57.2373722,16.5231608 L57.2373722,27.4114441 C58.9789291,27.4114441 59.3336907,26.9209809 59.3336907,25.8746594 L59.3336907,18.1253406 C59.3336907,16.6866485 58.6886696,16.5231608 57.2373722,16.5231608 Z M74.4359881,39.640327 L67.5342626,39.640327 L67.5342626,39.1171662 L68.953309,39.1171662 L68.953309,16.5231608 L67.5342626,16.5231608 L67.5342626,16 L74.339235,16 L74.339235,16.5231608 L72.9201886,16.5231608 L72.9201886,39.1171662 L74.4359881,39.1171662 L74.4359881,39.640327 Z M76.9691785,26.1035422 L76.9691785,16 L88.6763111,16 L88.6763111,26.1035422 L88.2247963,26.1035422 C87.1605116,19.2370572 86.1284778,16.4904632 84.8706867,16.4577657 L84.8061846,16.4577657 L84.8061846,39.1171662 L86.1607289,39.1171662 L86.1607289,39.640327 L79.4847607,39.640327 L79.4847607,39.1171662 L80.839305,39.1171662 L80.839305,16.4577657 L80.7748029,16.4577657 C79.5170118,16.4904632 78.4849781,19.2370572 77.4206933,26.1035422 L76.9691785,26.1035422 Z M91.8407007,25.0245232 L91.8407007,16 L101,16 L95.1625593,39.1171662 L96.4526014,39.1171662 C98.581171,39.1171662 99.226192,37.5476839 100.483983,29.9291553 L100.967749,29.9291553 L100.967749,39.640327 L91.1956796,39.640327 L97.0008693,16.5231608 L95.6785761,16.5231608 C94.388534,16.5231608 93.1629939,18.3215259 92.3244665,25.0245232 L91.8407007,25.0245232 Z" id="LAURITZ"></path>
            </g>
        </g>
    </g>
</svg>