<?xml version="1.0" encoding="UTF-8"?><svg id="Layer_1" xmlns="http://www.w3.org/2000/svg" viewBox="0 0 89 24"><defs><style>.cls-1{fill:#fff;fill-rule:evenodd;}</style></defs><g id="_1.-Mobile"><g id="_1.1-Home"><g id="Nav-bar"><path id="LAURITZ" class="cls-1" d="M11.06,23.64H0v-.52H1.23V.52H0V0H6.55V.52h-1.35V23.12h1.06c2.13,0,2.77-.59,4.35-8.93h.45v9.45Zm5.99,0h-3.58v-.52c.84-.07,1.23-.29,1.42-1.47L18.64,0h2.35l3.19,23.12h1.16v.52h-6.35v-.52h1.29l-.48-4.32h-3.77l-.42,3.27c-.1,.78,.9,1.05,1.45,1.05v.52Zm-.94-5.36h3.58l-1.48-11.74h-.06l-2.03,11.74ZM26.21,.52V0h6.45V.52h-1.23V21.81c0,.95,.26,1.44,1.64,1.44,1.29,0,2.68-1.14,2.68-4.45V2.06c0-1.21-.65-1.54-1.64-1.54V0h3.64V.52c-.87,.07-1.32,.39-1.32,1.54V18.51c0,4.32-1.81,5.49-4.64,5.49-2.55,0-4.32-1.24-4.32-4.71V.52h-1.26Zm21.29,20.27v-6.57c0-2.09-.65-2.35-2.26-2.35v11.25h1.26v.52h-6.45v-.52h1.23V.52h-1.23V0h5.45c4.13,0,5.97,2.71,5.97,5.66s-1.23,5.04-4.13,5.95v.07c2.77,1.05,3.97,2.03,3.97,5.98v3.2c0,1.28,.19,1.86,.65,1.86,.77,0,1-.72,1.19-2.98h.52c.06,3.6-1.42,4.09-3.1,4.09-2.1,0-3.06-.98-3.06-3.04ZM45.24,.52V11.41c1.74,0,2.1-.49,2.1-1.54V2.13c0-1.44-.65-1.6-2.1-1.6Zm17.2,23.12h-6.9v-.52h1.42V.52h-1.42V0h6.8V.52h-1.42V23.12h1.52v.52Zm2.53-13.54V0h11.71V10.1h-.45c-1.06-6.87-2.1-9.61-3.35-9.65h-.06V23.12h1.35v.52h-6.68v-.52h1.35V.46h-.06c-1.26,.03-2.29,2.78-3.35,9.65h-.45Zm14.87-1.08V0h9.16l-5.84,23.12h1.29c2.13,0,2.77-1.57,4.03-9.19h.48v9.71h-9.77L85,.52h-1.32c-1.29,0-2.52,1.8-3.35,8.5h-.48Z"/></g></g></g></svg>